<svg width="22" height="22" viewBox="0 0 22 22" fill="none" xmlns="http://www.w3.org/2000/svg">
<path d="M21 21.1H21.1074L21.0997 20.9928L20.0336 6.14514L20.027 6.0523H19.9339H16.5958C16.509 4.67432 15.8922 3.37786 14.8672 2.42247C13.8186 1.44512 12.4237 0.9 10.9733 0.9C9.52298 0.9 8.12809 1.44512 7.07952 2.42247C6.05452 3.37786 5.43772 4.67432 5.35089 6.0523H2.37527H2.2841L2.27569 6.14307L0.900426 20.9908L0.890309 21.1H1H21ZM10.9994 1.96411C12.1652 1.97388 13.2817 2.42096 14.1168 3.21164C14.9264 3.97812 15.4112 5.01017 15.4791 6.10421H6.47801C6.54396 5.00231 7.03372 3.96292 7.8527 3.1947C8.6973 2.40244 9.82577 1.96086 10.9994 1.96411ZM2.0806 20.0174L3.36133 7.15562H18.9665L19.8693 20.0174H2.0806Z" fill="#252525" stroke="#252525" stroke-width="0.2"/>
</svg>
