<svg width="16" height="16" viewBox="0 0 16 16" fill="none" xmlns="http://www.w3.org/2000/svg">
<g clip-path="url(#clip0)">
<path d="M7.05542 0.0192871C3.1651 0.0192871 0 3.17573 0 7.05546C0 10.9352 3.16513 14.0916 7.05542 14.0916C10.9457 14.0916 14.1109 10.9352 14.1109 7.05546C14.1109 3.17573 10.9457 0.0192871 7.05542 0.0192871ZM7.05542 12.935C3.80279 12.935 1.15663 10.2973 1.15663 7.05543C1.15663 3.81339 3.80279 1.17588 7.05542 1.17588C10.3081 1.17588 12.9542 3.81339 12.9542 7.05543C12.9542 10.2973 10.3081 12.935 7.05542 12.935Z" fill="#E8E8E8"/>
<path d="M15.8297 14.9925L12.0321 11.2141C11.8056 10.989 11.4395 10.99 11.2141 11.2163C10.989 11.4428 10.99 11.8088 11.2163 12.0342L15.0139 15.8125C15.1268 15.9247 15.2741 15.9808 15.4218 15.9808C15.5704 15.9808 15.7188 15.9239 15.8318 15.8104C16.057 15.5839 16.056 15.2178 15.8297 14.9925Z" fill="#E8E8E8"/>
</g>
<defs>
<clipPath id="clip0">
<rect width="16" height="16" fill="white"/>
</clipPath>
</defs>
</svg>
