<svg width="19" height="19" viewBox="0 0 19 19" fill="none" xmlns="http://www.w3.org/2000/svg">
<g clip-path="url(#clip0)">
<path d="M8.37831 0.0234375C3.75856 0.0234375 0 3.77171 0 8.37889C0 12.9861 3.75859 16.7343 8.37831 16.7343C12.998 16.7343 16.7567 12.9861 16.7567 8.37889C16.7567 3.77171 12.9981 0.0234375 8.37831 0.0234375ZM8.37831 15.3608C4.51581 15.3608 1.37349 12.2285 1.37349 8.37885C1.37349 4.52893 4.51581 1.3969 8.37831 1.3969C12.2408 1.3969 15.3831 4.52893 15.3831 8.37885C15.3832 12.2285 12.2408 15.3608 8.37831 15.3608Z" fill="#242424"/>
<path d="M18.7979 17.8037L14.2883 13.317C14.0193 13.0496 13.5846 13.0507 13.317 13.3195C13.0496 13.5885 13.0507 14.0232 13.3195 14.2908L17.8292 18.7776C17.9633 18.9108 18.1382 18.9774 18.3136 18.9774C18.49 18.9774 18.6663 18.9098 18.8005 18.775C19.0678 18.506 19.0667 18.0713 18.7979 17.8037Z" fill="#242424"/>
</g>
<defs>
<clipPath id="clip0">
<rect width="19" height="19" fill="white"/>
</clipPath>
</defs>
</svg>
