<svg width="22" height="22" viewBox="0 0 22 22" fill="none" xmlns="http://www.w3.org/2000/svg">
<path d="M7.98406 11.2803C7.1939 10.7764 6.53278 10.0915 6.05668 9.28036C5.52095 8.36762 5.23898 7.32825 5.23999 6.26991M7.98406 11.2803L14.044 11.223C14.8635 10.7262 15.5477 10.0328 16.0339 9.20443C16.5561 8.31476 16.831 7.30165 16.83 6.27005H16.98C16.98 6.27 16.98 6.26995 16.98 6.26991C16.9799 4.71314 16.3615 3.22014 15.2607 2.11933C14.1599 1.01849 12.6668 0.400049 11.11 0.400049C9.55317 0.400049 8.06011 1.01849 6.95927 2.11933C5.85847 3.22014 5.24003 4.71314 5.23999 6.26991M7.98406 11.2803C5.85623 11.9189 3.97838 13.2086 2.61749 14.972C1.18508 16.8281 0.405566 19.1052 0.399988 21.4497L0.399631 21.6H0.549988H1.64999H1.79999V21.45C1.79999 19.0101 2.76927 16.67 4.49461 14.9447C6.21994 13.2193 8.56 12.25 11 12.25C13.44 12.25 15.78 13.2193 17.5054 14.9447C19.2307 16.67 20.2 19.0101 20.2 21.45V21.6H20.35H21.45H21.5947L21.5999 21.4555C21.684 19.1207 20.9653 16.8277 19.5635 14.9587C18.233 13.1846 16.3634 11.8943 14.2399 11.2778L7.98406 11.2803ZM5.23999 6.26991L5.38999 6.27005H5.23999C5.23999 6.27 5.23999 6.26995 5.23999 6.26991ZM6.63999 6.26953C6.64009 5.38563 6.90225 4.52159 7.39332 3.78665C7.88449 3.05156 8.58261 2.47863 9.39939 2.14031C10.2162 1.80198 11.1149 1.71346 11.982 1.88594C12.8491 2.05841 13.6456 2.48414 14.2708 3.10928C14.8959 3.73442 15.3216 4.5309 15.4941 5.39799C15.6666 6.26509 15.5781 7.16386 15.2397 7.98064C14.9014 8.79743 14.3285 9.49555 13.5934 9.98672C12.8584 10.4778 11.9944 10.7399 11.1105 10.74C9.92749 10.7315 8.79533 10.2578 7.95877 9.42127C7.12222 8.58471 6.64849 7.45255 6.63999 6.26953Z" fill="#242424" stroke="#242424" stroke-width="0.3"/>
</svg>
