<svg width="22" height="20" viewBox="0 0 22 20" fill="none" xmlns="http://www.w3.org/2000/svg">
<path d="M20.1775 2.46903C17.785 0.192375 13.8909 0.192375 11.4977 2.46852L11 2.94117L10.5029 2.46873C8.10945 0.192289 4.21584 0.192547 1.82235 2.46873C0.647152 3.58652 0 5.06916 0 6.6431C0 8.21756 0.647152 9.69994 1.82252 10.8182L10.4686 19.0267C10.6174 19.1682 10.8088 19.2387 11 19.2387C11.1912 19.2387 11.3824 19.1679 11.5314 19.0264L20.1775 10.8182C21.3526 9.7002 22 8.2176 22 6.64336C22 5.06916 21.3526 3.58678 20.1775 2.46903ZM19.1137 9.69891L11 17.4023L2.88651 9.69917C2.02065 8.8758 1.54387 7.79045 1.54387 6.64336C1.54387 5.49626 2.02065 4.41092 2.88651 3.58755C3.78967 2.72813 4.97587 2.2987 6.16232 2.2987C7.34903 2.2987 8.53574 2.72865 9.4389 3.58807L10.4681 4.5656C10.7661 4.8489 11.2336 4.8489 11.5316 4.5656L12.5611 3.58755C14.3677 1.86897 17.3069 1.86897 19.1135 3.58755C19.9791 4.41096 20.4561 5.49626 20.4561 6.64336C20.4561 7.79045 19.9791 8.87554 19.1137 9.69891Z" fill="#242424"/>
</svg>
